<?xml version="1.0" encoding="UTF-8"?> <svg xmlns="http://www.w3.org/2000/svg" width="240" height="146" viewBox="0 0 240 146" fill="none"><path d="M153.184 107.643H95.6913C94.8909 107.643 94.224 106.976 94.224 106.176V26.0055C94.224 25.2052 94.8909 24.5382 95.6913 24.5382H153.184C153.985 24.5382 154.652 25.2052 154.652 26.0055V106.176C154.652 106.976 153.985 107.643 153.184 107.643Z" fill="#579AE2"></path><path d="M149.849 104.841H99.1596C98.4926 104.841 97.8256 104.308 97.8256 103.508V28.6734C97.8256 28.0064 98.3592 27.3394 99.1596 27.3394H149.849C150.516 27.3394 151.183 27.873 151.183 28.6734V103.641C151.05 104.308 150.516 104.841 149.849 104.841Z" fill="white"></path><path d="M139.044 22.2704H110.098V28.9402H139.044V22.2704Z" fill="#ABB9F0"></path><path d="M126.505 28.1398C129.747 28.1398 132.375 25.512 132.375 22.2705C132.375 19.0289 129.747 16.4011 126.505 16.4011C123.264 16.4011 120.636 19.0289 120.636 22.2705C120.636 25.512 123.264 28.1398 126.505 28.1398Z" fill="#ABB9F0"></path><path d="M139.044 22.2704H110.098V24.8049H139.044V22.2704Z" fill="#95A1D1"></path><path d="M117.301 54.8186H107.297C106.229 54.8186 105.429 54.0183 105.429 52.9511V42.0128C105.429 40.9456 106.229 40.1453 107.297 40.1453H117.301C118.368 40.1453 119.169 40.9456 119.169 42.0128V52.9511C119.169 54.0183 118.368 54.8186 117.301 54.8186Z" stroke="#555F6E" stroke-width="0.2187" stroke-miterlimit="10"></path><path d="M117.435 73.3604H107.43C106.363 73.3604 105.562 72.5601 105.562 71.4929V60.5546C105.562 59.4874 106.363 58.6871 107.43 58.6871H117.435C118.502 58.6871 119.302 59.4874 119.302 60.5546V71.4929C119.302 72.4267 118.502 73.3604 117.435 73.3604Z" stroke="#555F6E" stroke-width="0.2187" stroke-miterlimit="10"></path><path d="M117.435 92.0357H107.43C106.363 92.0357 105.562 91.2353 105.562 90.1682V79.2298C105.562 78.1627 106.363 77.3623 107.43 77.3623H117.435C118.502 77.3623 119.302 78.1627 119.302 79.2298V90.1682C119.302 91.1019 118.502 92.0357 117.435 92.0357Z" stroke="#555F6E" stroke-width="0.2187" stroke-miterlimit="10"></path><path d="M144.78 40.8123H124.504V42.0129H144.78V40.8123Z" fill="#00C3A9"></path><path d="M143.446 44.414H124.504V45.6145H143.446V44.414Z" fill="#00C3A9"></path><path d="M140.512 47.8822H124.504V49.0828H140.512V47.8822Z" fill="#00C3A9"></path><path d="M143.446 51.4838H124.504V52.6844H143.446V51.4838Z" fill="#00C3A9"></path><path d="M144.78 59.7543H124.504V60.9549H144.78V59.7543Z" fill="#00C3A9"></path><path d="M143.446 63.2225H124.504V64.4231H143.446V63.2225Z" fill="#00C3A9"></path><path d="M140.512 66.8242H124.504V68.0248H140.512V66.8242Z" fill="#00C3A9"></path><path d="M143.446 70.4258H124.504V71.6264H143.446V70.4258Z" fill="#00C3A9"></path><path d="M144.78 78.6962H124.504V79.8968H144.78V78.6962Z" fill="#00C3A9"></path><path d="M143.446 82.1644H124.504V83.365H143.446V82.1644Z" fill="#00C3A9"></path><path d="M140.512 85.7661H124.504V86.9667H140.512V85.7661Z" fill="#00C3A9"></path><path d="M143.446 89.3677H124.504V90.5683H143.446V89.3677Z" fill="#00C3A9"></path><path d="M110.765 50.8168L107.03 46.5482L107.697 45.8812L110.765 49.3495L117.168 42.9465L117.968 43.6135L110.765 50.8168Z" fill="#00C3A9"></path><path d="M110.765 69.7588L107.03 65.4902L107.697 64.8232L110.765 68.2915L117.168 61.8885L117.968 62.6889L110.765 69.7588Z" fill="#00C3A9"></path><path d="M110.765 88.7008L107.03 84.4322L107.697 83.7652L110.765 87.2335L117.168 80.9639L117.968 81.6309L110.765 88.7008Z" fill="#00C3A9"></path><path d="M177.996 74.4277C177.729 74.561 177.462 74.561 177.195 74.561C177.195 74.6944 177.329 74.9612 177.595 74.9612C177.862 74.8278 178.129 74.6944 178.262 74.4277C178.262 74.1609 178.129 74.2943 177.996 74.4277Z" fill="#FCD2C5"></path><path d="M178.929 75.4948C178.929 75.4948 178.262 75.0946 177.862 74.8278C177.595 74.6944 177.329 74.561 176.928 74.4276C176.662 74.8278 176.395 75.0946 176.261 75.4948C176.662 75.7615 179.063 77.0955 178.929 76.4285C178.929 76.4285 179.33 76.5619 179.33 76.2951C179.463 76.2951 179.463 76.2951 179.463 76.1617C179.596 76.0283 179.463 75.8949 179.33 75.7616C179.33 75.7616 179.063 75.4948 178.929 75.4948Z" fill="#FCD2C5"></path><path d="M170.792 69.6255C170.792 69.4921 170.125 64.4231 168.791 62.022C168.124 60.688 165.723 60.2879 165.723 62.8224C165.723 64.4231 167.591 68.8251 168.658 70.4258C169.725 71.8932 174.394 74.6944 176.528 75.7616L177.195 74.6944C176.395 74.2943 174.394 72.6935 172.793 71.3596C171.993 70.5592 171.326 70.0257 170.792 69.6255Z" fill="#FCD2C5"></path><path d="M170.392 65.8904C170.259 64.6899 169.859 63.4893 169.325 62.2888C168.124 60.0211 166.123 61.6218 166.257 63.0891C166.257 64.2897 166.257 65.4902 166.524 66.8242L170.392 65.8904Z" fill="#FF6164"></path><path d="M162.655 75.6281V81.8977C163.189 82.2978 164.256 87.9004 165.056 93.7697C165.59 98.4385 165.723 103.241 165.323 107.91C165.857 108.443 166.791 107.91 166.791 107.91C167.991 103.241 168.791 98.5719 169.192 93.7697C169.592 87.5002 169.725 81.3641 169.325 75.0945C168.525 75.4947 165.056 75.7615 162.655 75.6281Z" fill="#42434A"></path><path d="M157.853 75.228C157.586 85.366 158.253 88.5675 158.653 93.6364C158.92 97.2381 158.12 99.7726 157.853 107.776C158.253 108.31 159.187 107.91 159.187 107.91C159.187 107.91 160.921 101.24 162.388 94.17C164.123 85.7662 166.657 77.4957 166.657 76.6954C165.857 76.8288 159.987 75.6282 157.853 75.228Z" fill="#505159"></path><path d="M163.989 56.4194C163.989 57.3531 163.856 58.4203 163.589 59.2207C164.123 60.4212 166.123 60.5546 166.257 59.7542C165.99 58.9539 166.39 57.4865 166.39 57.3531C165.723 57.6199 164.123 56.5528 163.989 56.4194Z" fill="#FCD2C5"></path><path d="M167.858 60.4213C167.324 60.1545 166.79 60.0211 166.257 59.8877C166.257 59.8877 166.257 60.2879 165.323 60.2879C164.656 60.2879 163.589 59.2207 163.589 59.2207C163.589 59.2207 161.988 59.4875 161.588 59.6209C157.186 61.2216 156.119 71.0928 157.32 84.1654C157.72 84.4322 158.12 84.4322 158.387 84.2988L159.32 75.7616L159.454 80.6972C163.856 82.5647 168.791 81.8977 169.859 80.4304C169.859 75.228 168.925 66.6908 168.925 64.4231C168.925 63.0891 169.058 61.2216 167.858 60.4213Z" fill="#FF6164"></path><path d="M165.323 60.2878C164.656 60.2878 163.456 59.3541 163.456 59.3541L162.388 59.4875C161.988 59.4875 161.722 59.6209 161.321 59.7543C163.322 60.8214 166.257 63.4893 166.257 63.4893C166.257 63.4893 167.591 61.7552 167.724 60.4212C167.191 60.1544 166.657 60.021 166.124 59.8876C166.257 59.8876 165.99 60.2878 165.323 60.2878Z" fill="#F0F1F3"></path><path d="M160.388 75.4948C160.388 75.7616 160.521 75.895 160.788 75.895H171.192C171.459 75.895 171.593 75.7616 171.593 75.4948H160.388Z" fill="#D9E2FF"></path><path d="M172.927 66.1572L170.792 75.228C170.792 75.3614 170.792 75.7616 171.326 75.7616L180.263 75.6282V65.4902H173.727C173.327 65.6236 173.06 65.8904 172.927 66.1572Z" fill="#B1BFD9"></path><path d="M184.932 65.6236H173.594C173.46 65.6236 173.327 65.757 173.327 65.757L171.059 75.4948C171.059 75.6282 171.059 75.7616 171.192 75.7616H181.731C182.264 75.7616 182.798 75.3614 182.931 74.8278L185.065 65.757C185.199 65.757 185.199 65.6236 184.932 65.6236C184.932 65.6236 185.065 65.6236 184.932 65.6236Z" fill="#E2E8F1"></path><path d="M146.381 52.0174C146.648 52.6844 147.182 53.3513 147.315 53.6181C147.715 53.3513 147.982 53.0845 148.382 52.8178C148.249 52.551 148.115 52.2842 147.982 52.0174C147.848 51.7506 147.315 51.0836 147.315 50.9502C147.182 50.8168 146.915 50.5501 146.915 50.4167C146.781 50.2833 146.648 50.2833 146.515 50.2833C146.515 50.2833 146.381 50.4167 146.648 50.8168C146.781 51.0836 146.915 51.217 147.048 51.4838C147.048 51.4838 146.781 51.4838 146.781 51.6172C146.781 51.6172 146.515 51.6172 146.515 51.7506C146.515 51.884 146.381 51.884 146.381 52.0174Z" fill="#FCD2C5"></path><path d="M147.182 53.4847C148.249 55.4856 151.45 60.021 153.051 60.9548C154.385 61.6218 155.719 62.2887 157.186 62.6889C158.387 63.0891 159.587 63.3559 160.788 63.3559C163.322 63.2225 162.789 60.8214 161.455 60.1544C160.254 59.7542 159.187 59.3541 157.986 59.2207C155.852 58.8205 153.851 58.6871 153.718 58.6871C153.318 58.1535 152.651 57.6199 151.984 56.953C150.65 55.4856 148.916 53.7515 148.382 52.9511C148.382 52.9511 148.382 52.9511 148.382 52.8177L147.182 53.4847Z" fill="#FCD2C5"></path><path d="M169.058 108.977C168.525 108.977 167.991 108.843 167.457 108.577C167.057 108.31 167.191 106.309 167.191 105.909C166.924 106.042 166.657 106.175 166.39 106.175C166.39 106.309 166.257 106.442 166.39 106.576C165.99 106.576 165.59 106.576 165.19 106.576C165.19 107.376 165.056 108.176 164.79 108.977C164.656 109.11 164.79 109.377 164.79 109.51C165.056 109.777 165.457 109.911 165.857 109.777H169.325C169.458 109.777 169.725 109.644 169.725 109.51C169.992 109.377 169.859 108.977 169.058 108.977Z" fill="#FFBA58"></path><path d="M161.321 108.843C160.788 108.843 160.254 108.71 159.854 108.443C159.454 108.176 159.721 106.042 159.854 105.775C159.587 105.775 159.32 106.042 159.054 106.042C159.054 106.175 158.92 106.309 158.92 106.442C158.52 106.442 158.12 106.442 157.72 106.309C157.586 107.109 157.453 107.91 157.186 108.71C157.053 108.843 157.053 109.11 157.186 109.244C157.453 109.51 157.853 109.644 158.253 109.644L161.722 109.91C161.855 109.91 162.122 109.777 162.122 109.644C162.122 109.377 161.988 108.977 161.321 108.843Z" fill="#FFBA58"></path><path d="M166.524 54.0183C167.324 54.6852 167.591 55.8858 166.924 56.6862C166.924 56.6862 166.924 56.6862 166.924 56.8196L166.257 57.7533C165.723 58.4203 163.989 58.8205 163.456 58.1535C162.255 56.8196 163.856 54.0183 163.989 53.7515C164.656 53.0845 165.723 53.4847 166.524 54.0183Z" fill="#FCD2C5"></path><path d="M165.457 52.8178C165.457 52.8178 168.258 52.8178 168.791 54.8187C169.725 57.7534 166.124 58.4203 166.124 58.4203C166.257 57.62 167.457 54.9521 165.323 53.6181C165.323 53.6181 163.856 53.4847 163.189 55.3523C162.655 54.6853 163.722 52.1508 165.457 52.8178Z" fill="#42434A"></path><path d="M167.191 57.2198C166.924 57.4866 166.657 57.62 166.257 57.62C166.257 57.2198 166.39 56.6862 166.524 56.286C166.657 56.286 166.79 56.286 167.057 56.4194C167.324 56.5528 167.324 56.953 167.191 57.2198Z" fill="#FCD2C5"></path><path d="M173.594 58.6871C173.193 60.8214 173.594 61.0882 173.994 61.8886C175.995 65.8904 169.192 68.9585 169.325 66.6908C169.458 65.757 171.859 65.757 169.592 63.2225C167.057 60.4213 168.925 59.3541 169.458 58.287C171.859 54.4185 169.458 54.5519 168.658 55.2189C168.124 55.6191 167.991 55.2189 168.124 54.8187C168.658 52.9512 175.061 51.7506 173.594 58.6871Z" fill="#42434A"></path><path d="M168.925 54.0183C169.058 54.1517 169.192 54.1517 169.192 54.2851C169.458 54.6853 169.325 55.0855 169.058 55.3523C168.925 54.8187 168.658 54.2851 168.391 53.8849C168.525 53.8849 168.658 53.8849 168.925 54.0183Z" fill="#F9DC62"></path><path d="M157.319 62.9557C158.52 63.3559 159.721 63.4893 161.055 63.3559C163.589 63.0891 162.922 60.2878 161.588 59.7542C160.388 59.354 159.32 59.0873 158.12 58.9539L157.319 62.9557Z" fill="#FF6164"></path><path opacity="0.28" d="M171.459 32.1416C176.469 32.1416 180.53 28.0805 180.53 23.0708C180.53 18.0611 176.469 14 171.459 14C166.45 14 162.388 18.0611 162.388 23.0708C162.388 28.0805 166.45 32.1416 171.459 32.1416Z" fill="#FF6584"></path><path d="M187.066 100.706C187.066 102.307 186.8 103.774 186.266 105.242V105.375H183.465C183.465 105.375 183.465 105.375 183.465 105.242C183.598 103.107 184.799 89.768 183.465 87.5003C183.465 87.6337 187.2 93.7698 187.066 100.706Z" fill="#E6E6E6"></path><path d="M183.732 101.907C183.865 102.974 183.732 104.041 183.465 105.108C183.465 105.108 183.465 105.108 183.465 105.242L181.464 105.509C181.464 105.509 181.464 105.509 181.464 105.375C181.464 103.774 181.33 94.3034 180.263 92.8361C180.263 92.9695 183.331 96.9713 183.732 101.907Z" fill="#E6E6E6"></path><path d="M186.8 105.242L184.532 105.375C184.532 105.375 184.532 105.375 184.532 105.242C184.932 104.575 185.866 102.707 186.933 100.706C188 98.572 188.934 96.4377 188.801 95.6373C188.934 95.7707 189.734 101.24 186.8 105.242Z" fill="#E6E6E6"></path><path d="M115.167 104.441H33.2628V104.708H115.167V104.441Z" fill="#E6E6E6"></path><path d="M85.6867 112.845L86.0869 109.51L97.292 106.576L95.9581 102.707C96.8919 100.173 98.4926 98.8388 101.294 100.173L106.229 103.241C107.163 103.908 108.097 105.508 108.097 106.709C108.097 107.91 106.763 109.644 105.696 110.177C100.36 112.845 93.4236 112.578 85.6867 112.845Z" fill="#2F2E41"></path><path d="M86.3537 113.912L82.8854 113.379L79.684 114.046C78.8836 114.179 78.2166 113.646 78.0833 112.979C78.0833 112.845 78.0833 112.845 78.0833 112.712C78.0833 112.312 78.2166 111.778 78.6168 111.511L83.6858 107.643C84.6196 106.976 85.8201 106.976 86.6205 107.776L87.9544 108.977C87.0207 109.51 86.3537 110.444 85.9535 111.511C86.7539 112.178 87.0207 112.845 86.3537 113.912Z" fill="#2F2E41"></path><path d="M89.6886 72.16C92.6233 71.8932 92.8901 74.2943 92.8901 76.0284C92.8901 77.7625 91.4227 79.3633 89.6886 79.3633C87.9545 79.3633 86.4871 77.8959 86.4871 76.1618C86.4871 74.4277 86.4871 72.4268 89.6886 72.16Z" fill="#FFB8B8"></path><path d="M94.7576 82.5647L87.5543 85.6328C88.0878 82.6981 88.488 80.0302 87.5543 78.4295L92.2231 77.8959C91.9563 78.9631 93.1568 80.6972 94.7576 82.5647Z" fill="#FFB8B8"></path><path d="M80.4844 120.982C79.2838 120.849 78.2167 119.782 78.3501 118.581C78.3501 118.314 78.35 118.181 78.4834 118.048L79.017 116.447L79.4172 112.578C80.0842 111.378 80.8845 111.511 81.9517 112.445C82.6187 112.445 82.7521 111.778 82.6187 110.844L84.6196 113.512C85.0198 114.046 85.0198 114.579 84.753 115.113L82.7521 119.515C82.3519 120.449 81.4181 120.982 80.4844 120.982Z" fill="#2F2E41"></path><path d="M101.561 100.173L101.027 98.7054L87.2875 94.4368C87.1541 94.4368 87.1541 94.4368 87.0207 94.5702C87.0207 94.5702 87.0207 94.4368 86.8873 94.4368L83.4191 91.102C82.7521 90.5684 82.0851 90.1682 81.1514 90.1682C79.4173 90.1682 77.8165 91.5022 77.6831 93.3697C77.2829 99.239 78.2167 105.775 79.8174 112.712L82.4853 112.845L83.4191 102.174C83.4191 102.174 84.8864 103.641 85.1532 103.774C87.8211 106.309 90.6224 106.176 94.224 104.842L97.4255 106.576C101.161 105.108 102.228 104.975 105.963 102.974L101.561 100.173Z" fill="#2F2E41"></path><path d="M101.427 99.7726C96.6251 101.907 91.2893 99.6392 86.8873 94.7036L83.9526 82.6981C83.8192 82.1645 84.086 81.6309 84.6196 81.4975L88.0878 80.8306C88.0878 80.8306 88.2212 83.3651 89.822 83.4985C92.6232 83.8986 93.1568 80.5638 93.1568 80.5638L96.7585 81.7643C97.6922 82.0311 98.4926 82.9649 98.626 83.8986L101.427 99.7726Z" fill="#3A609B"></path><path opacity="0.2" d="M93.6904 109.911C92.7566 109.51 92.3564 108.577 92.6232 107.643C92.7566 107.509 92.7566 107.243 92.89 107.109L95.1577 104.441L96.7585 105.375L95.9581 108.71C95.6913 109.644 94.7575 110.177 93.8238 110.044C93.8238 109.911 93.8238 109.911 93.6904 109.911Z" fill="black"></path><path d="M93.6904 109.51C92.7566 109.11 92.3564 108.176 92.6232 107.243C92.7566 107.109 92.7566 106.842 92.89 106.709L95.1577 104.041L96.7585 104.975L95.9581 108.31C95.6913 109.244 94.7575 109.777 93.8238 109.644C93.8238 109.51 93.8238 109.51 93.6904 109.51Z" fill="#FFB8B8"></path><path d="M97.292 105.642L94.8909 104.041L98.3592 94.837L97.0252 81.7643L98.2258 82.5647C99.5597 83.3651 100.36 84.699 100.76 86.1663L102.628 95.5039C101.827 99.7726 100.36 103.508 97.292 105.642Z" fill="#3A609B"></path><path opacity="0.2" d="M95.8247 90.9685L97.0253 96.8378L96.0915 100.439L95.8247 90.9685Z" fill="black"></path><path d="M86.6205 75.8949C86.6205 75.8949 84.4862 68.825 90.0888 70.159C91.0226 70.2924 92.7567 70.826 93.2903 71.4929C93.4237 71.6263 93.557 71.6263 93.6904 71.6263C94.6242 71.6263 94.4908 75.7616 92.7567 77.2289C92.7567 77.2289 93.1569 75.3614 92.4899 74.6944C92.3565 74.561 92.2231 74.4276 92.2231 74.2942C91.8229 73.3605 92.4899 73.0937 91.5561 73.0937C91.0226 73.0937 88.7549 74.0274 88.2213 73.894C86.7539 73.7606 86.3538 75.228 86.6205 75.8949Z" fill="#2F2E41"></path><path d="M92.3565 84.8324V85.0992L92.0897 86.8333L91.6895 89.6346L91.5561 90.3016C91.5561 90.435 91.4227 90.435 91.2893 90.435H88.7548C88.6214 90.435 88.488 90.3016 88.488 90.3016L88.3546 89.6346L87.9544 86.8333L87.6877 85.0992V84.8324C87.6877 84.699 87.821 84.5656 87.821 84.5656H91.8229C92.2231 84.699 92.3565 84.699 92.3565 84.8324Z" fill="#E6E6E6"></path><path d="M92.6233 84.9658C90.8892 85.0992 89.2884 85.0992 87.5543 84.9658C87.4209 84.9658 87.2875 84.8324 87.2875 84.699V84.4322C87.2875 84.2988 87.4209 84.1654 87.5543 84.1654C89.2884 84.4322 91.0225 84.4322 92.6233 84.1654C92.7567 84.1654 92.8901 84.2988 92.8901 84.4322V84.699C92.8901 84.9658 92.7567 84.9658 92.6233 84.9658Z" fill="#3F3D56"></path><path d="M92.4899 89.5012C92.6233 90.435 91.8229 91.3687 90.8892 91.3687C90.7558 91.3687 90.489 91.3687 90.3556 91.3687L86.8873 90.5684L87.0207 88.7008L90.3556 87.9005C91.2893 87.6337 92.2231 88.3006 92.4899 89.2344C92.3565 89.3678 92.4899 89.3678 92.4899 89.5012Z" fill="#FFB8B8"></path><path d="M87.8211 90.8351L78.6169 91.1019C77.4163 91.1019 76.3492 90.1682 76.2158 88.8342C76.2158 88.7008 76.2158 88.5674 76.2158 88.434C76.3492 87.9005 76.4825 87.5003 76.8827 87.1001L81.2847 83.0983C82.0851 82.2979 83.1523 81.8977 84.2194 81.6309L85.6868 81.3641L86.6205 88.1672L81.4181 87.6337L87.5543 88.3006L87.8211 90.8351Z" fill="#3A609B"></path><path d="M75.6822 110.711H52.0714C51.6712 110.711 51.271 110.311 51.271 109.91C59.8083 108.977 68.2121 108.977 76.4825 109.91C76.4825 110.311 76.0824 110.711 75.6822 110.711Z" fill="#2F2E41"></path><path d="M76.4825 110.044H51.271L54.2057 105.108V94.3033C54.2057 93.7698 54.6059 93.3696 55.1395 93.3696H72.3473C72.8809 93.3696 73.2811 93.7698 73.2811 94.3033V105.242L76.4825 110.044Z" fill="#3F3D56"></path><path d="M55.1394 93.9032C55.006 93.9032 54.8727 94.0366 54.8727 94.17V104.041C54.8727 104.175 55.006 104.308 55.1394 104.308H72.4807C72.6141 104.308 72.7475 104.175 72.7475 104.041V94.17C72.7475 94.0366 72.6141 93.9032 72.4807 93.9032H55.1394Z" fill="white"></path><path d="M55.2728 105.642C55.2728 105.642 55.1394 105.775 55.2728 105.642L54.2057 107.643C54.2057 107.776 54.2057 107.776 54.3391 107.776H73.2811C73.4145 107.776 73.4145 107.776 73.4145 107.643L72.4807 105.642L72.3473 105.509H55.2728V105.642Z" fill="#2F2E41"></path><path d="M61.9426 108.31C61.9426 108.31 61.8092 108.31 61.8092 108.443L61.5424 109.244C61.5424 109.377 61.5424 109.377 61.6758 109.377H65.9444C66.0778 109.377 66.0778 109.377 66.0778 109.244L65.811 108.443L65.6776 108.31H61.9426Z" fill="#2F2E41"></path><path d="M73.4145 104.842V104.975H54.2057V104.842H73.4145Z" fill="#2F2E41"></path><path d="M46.0686 98.7054C46.0686 100.706 46.4688 102.574 47.0024 104.441V104.575H50.604V104.441C50.3372 101.64 49.0033 84.5656 50.604 81.6309C50.604 81.8977 45.8019 89.768 46.0686 98.7054Z" fill="#E6E6E6"></path><path d="M46.3354 104.441C46.3354 104.441 46.4688 104.575 46.3354 104.441L49.1367 104.575C49.1367 104.575 49.1367 104.441 49.0033 104.441C48.6031 103.641 47.2692 101.24 45.9352 98.7055C44.6013 96.0376 43.4007 93.1029 43.5341 92.1691C43.5341 92.3025 42.6004 99.3724 46.3354 104.441Z" fill="#E6E6E6"></path><path d="M52.4716 45.3477L53.9389 44.1472C52.7383 44.0138 52.3382 44.6807 52.0714 45.0809C51.1376 44.6807 50.2039 45.2143 50.2039 45.2143L53.1385 46.2815C53.1385 46.0147 52.8717 45.6145 52.4716 45.3477Z" fill="#3F3D56"></path><path d="M97.2921 39.2115L98.7594 38.0109C97.5588 37.8775 97.1587 38.5445 96.8919 38.9447C95.9581 38.5445 95.0244 39.0781 95.0244 39.0781L97.959 40.1453C97.8256 39.8785 97.5588 39.4783 97.2921 39.2115Z" fill="#3F3D56"></path><path d="M88.7548 54.952L90.2222 53.7515C89.0216 53.6181 88.6214 54.2851 88.3546 54.6852C87.4209 54.2851 86.4871 54.8186 86.4871 54.8186L89.4218 55.8858C89.2884 55.619 89.0216 55.2188 88.7548 54.952Z" fill="#3F3D56"></path><path d="M62.3428 98.3052H60.0751C59.8083 98.3052 59.6749 98.1718 59.6749 97.905V95.5039C59.6749 95.2371 59.8083 95.1038 60.0751 95.1038H62.3428C62.6095 95.1038 62.7429 95.2371 62.7429 95.5039V97.905C62.7429 98.1718 62.4761 98.3052 62.3428 98.3052Z" stroke="#381F7A" stroke-width="0.0481221" stroke-miterlimit="10"></path><path d="M68.2121 95.3705H63.8101V95.6373H68.2121V95.3705Z" fill="#00C3A9"></path><path d="M67.9453 96.0375H63.8101V96.3043H67.9453V96.0375Z" fill="#00C3A9"></path><path d="M67.2783 96.8378H63.8101V97.1046H67.2783V96.8378Z" fill="#00C3A9"></path><path d="M67.9453 97.6382H63.8101V97.905H67.9453V97.6382Z" fill="#00C3A9"></path><path d="M60.075 96.4377L60.8754 97.3714L62.3427 95.9041" stroke="#5DC4EF" stroke-width="0.2406" stroke-miterlimit="10"></path><path d="M62.3428 102.707H60.0751C59.8083 102.707 59.6749 102.574 59.6749 102.307V99.9059C59.6749 99.6391 59.8083 99.5057 60.0751 99.5057H62.3428C62.6095 99.5057 62.7429 99.6391 62.7429 99.9059V102.307C62.7429 102.44 62.4761 102.707 62.3428 102.707Z" stroke="#381F7A" stroke-width="0.0481221" stroke-miterlimit="10"></path><path d="M68.2121 99.6392H63.8101V99.9059H68.2121V99.6392Z" fill="#00C3A9"></path><path d="M67.9453 100.439H63.8101V100.706H67.9453V100.439Z" fill="#00C3A9"></path><path d="M67.2783 101.24H63.8101V101.507H67.2783V101.24Z" fill="#00C3A9"></path><path d="M67.9453 102.04H63.8101V102.307H67.9453V102.04Z" fill="#00C3A9"></path><path d="M60.075 100.84L60.8754 101.773L62.3427 100.306" stroke="#5DC4EF" stroke-width="0.2406" stroke-miterlimit="10"></path></svg> 